<svg xmlns="http://www.w3.org/2000/svg" viewBox="0 0 512 512" role="img" aria-label="Trendyol Süper Lig">
  <rect width="512" height="512" fill="#ffffff"/>
  <g transform="translate(86,80)">
    <path d="M170 40c10-18 16-28 30-28h70l-64 76 40 46c22 25 22 64 0 89l-76 90-54-64c-26-31-25-77 3-106 9-9 22-16 36-18l28 33-36 42c30 28 40 64 28 104l71-85c14-17 14-42-1-59l-40-47z" fill="#e10600"/>
    <path d="M170 40l-32-37c-5-6-12-9-20-9h-71l64 78h71c4 0 6-5 3-8l-15-18z" fill="#121212"/>
    <path d="M160 140l-36-42c-17 3-31 12-41 24-22 27-23 66-3 95l96 113c21-50 6-91-43-122l27-32z" fill="#000000"/>
    <circle cx="196" cy="-10" r="14" fill="#000"/>
    <circle cx="196" cy="-10" r="14" fill="#e10600" opacity=".35"/>
  </g>
  <text x="256" y="420" font-family="Inter, Arial, sans-serif" font-weight="700" font-size="48" text-anchor="middle" fill="#000">Süper Lig</text>
</svg>

